<?xml version="1.0" encoding="UTF-8"?>
<svg xmlns="http://www.w3.org/2000/svg" style="display: none;">
  <symbol id="gitee" viewBox="0 0 24 24">
    <path fill="#c71d23" d="M12 0C5.373 0 0 5.373 0 12s5.373 12 12 12 12-5.373 12-12S18.627 0 12 0zm6.67 4.497c.204.166.33.398.33.653 0 .255-.126.487-.33.653l-5.938 4.874 5.938 4.874c.204.166.33.398.33.653 0 .255-.126.487-.33.653-.204.166-.472.255-.76.255-.288 0-.556-.089-.76-.255l-6.698-5.491c-.204-.166-.33-.398-.33-.653 0-.255.126-.487.33-.653l6.698-5.491c.204-.166.472-.255.76-.255.288 0 .556.089.76.255z"/>
  </symbol>
</svg>
